<?xml version="1.0" encoding="UTF-8"?> <svg xmlns="http://www.w3.org/2000/svg" width="30" height="30" viewBox="0 0 30 30" fill="none"><g id="AI_ikon"><path id="Vector" d="M13.0798 10.3303L13.5798 13.3503C13.7698 14.4703 14.6498 15.3503 15.7698 15.5403L18.7798 16.0403C18.9998 16.0803 19.1698 16.2503 19.2098 16.4703C19.2598 16.7603 19.0598 17.0303 18.7798 17.0703L15.7698 17.5703C14.6498 17.7603 13.7698 18.6403 13.5798 19.7603L13.0798 22.7803C13.0398 23.0003 12.8698 23.1803 12.6498 23.2103C12.3598 23.2603 12.0998 23.0603 12.0498 22.7803L11.5498 19.7603C11.3598 18.6403 10.4798 17.7603 9.35979 17.5703L6.34979 17.0703C6.12979 17.0303 5.95979 16.8603 5.91979 16.6403C5.86979 16.3503 6.06979 16.0803 6.34979 16.0403L9.35979 15.5403C10.4798 15.3503 11.3598 14.4703 11.5498 13.3503L12.0498 10.3303C12.0898 10.1103 12.2598 9.93026 12.4798 9.90026C12.7698 9.85026 13.0298 10.0503 13.0798 10.3303Z" stroke="#3868B5" stroke-width="1.5" stroke-linecap="round" stroke-linejoin="round"></path><path id="Vector_2" d="M21.27 8.50989L21.02 6.99989C21 6.85989 20.86 6.75989 20.72 6.77989C20.61 6.79989 20.52 6.88989 20.5 6.99989L20.25 8.50989C20.16 9.06989 19.72 9.50989 19.16 9.60989L17.66 9.85989C17.52 9.87989 17.42 10.0199 17.44 10.1599C17.46 10.2699 17.54 10.3599 17.66 10.3799L19.16 10.6299C19.72 10.7199 20.16 11.1599 20.25 11.7299L20.5 13.2399C20.52 13.3799 20.66 13.4799 20.8 13.4599C20.91 13.4399 21 13.3499 21.02 13.2399L21.27 11.7299C21.36 11.1699 21.8 10.7299 22.36 10.6299L23.86 10.3799C24 10.3599 24.1 10.2199 24.08 10.0799C24.06 9.96989 23.98 9.87989 23.86 9.85989L22.36 9.60989C21.8 9.51989 21.36 9.07989 21.27 8.50989Z" stroke="#3868B5" stroke-width="1.5" stroke-linecap="round" stroke-linejoin="round"></path></g></svg> 