<?xml version="1.0" encoding="UTF-8"?> <svg xmlns="http://www.w3.org/2000/svg" id="Layer_1" data-name="Layer 1" viewBox="0 0 1067.57 250.88"><defs><style> .cls-1 { fill: #3abf47; } .cls-1, .cls-2 { stroke-width: 0px; } .cls-2 { fill: #153149; } </style></defs><path class="cls-2" d="m491.2,122.63v64.65c0,1.41-1.15,2.56-2.56,2.56h-31.33c-1.41,0-2.56-1.15-2.56-2.56v-64.65c0-1.41,1.15-2.56,2.56-2.56h31.33c1.41,0,2.56,1.15,2.56,2.56Zm471.51,18.84v12.16c0,3.7.45,4.63.89,5.05.62.56,1.66.71,5.1.71h65.95c1.41,0,2.56,1.15,2.56,2.56v25.34c0,1.41-1.15,2.56-2.56,2.56h-78.25c-18.04,0-27.82-4.28-27.82-26.86v-75.63c0-22.58,9.78-26.86,27.82-26.86h58.27c18.04,0,27.82,4.28,27.82,26.86v27.26c0,22.58-9.78,26.86-27.82,26.86h-51.96Zm0-33.91v3.46h39.65c5.43,0,5.99-.54,5.99-5.76v-8.56c0-5.22-.56-5.75-5.99-5.75h-45.3c-1.39,0-2.14,1.63-1.23,2.68,2.51,2.91,6.06,7.96,6.88,13.93Zm-407.9-16.49h-31.33c-1.41,0-2.56,1.15-2.56,2.56v93.65c0,1.41,1.15,2.56,2.56,2.56h31.33c1.41,0,2.56-1.15,2.56-2.56v-93.65c0-1.41-1.15-2.56-2.56-2.56Zm355.07-30.58h-43.24c-18.04,0-27.82,4.28-27.82,26.86v99.93c0,1.41,1.15,2.56,2.56,2.56h29.01c1.41,0,2.56-1.15,2.56-2.56v-90.58c0-5.22.56-5.75,6-5.75h30.93c1.41,0,2.56-1.15,2.56-2.56v-25.33c0-1.41-1.15-2.56-2.56-2.56Zm-93.35,26.86v75.63c0,22.58-9.78,26.86-27.82,26.86h-53.47c-18.04,0-27.82-4.28-27.82-26.86v-75.63c0-22.58,9.78-26.86,27.82-26.86h53.47c18.04,0,27.82,4.28,27.82,26.86Zm-34.13,9.35c0-5.21-.56-5.75-5.96-5.75h0s-.03,0-.03,0h-40.57c-1.39,0-2.14,1.63-1.23,2.68,2.46,2.85,6.41,7.8,6.9,13.58,0,.09,0,.17.01.26.02.31.04.61.04.93h0s0,45.24,0,45.24c0,3.7.45,4.63.89,5.05.62.56,1.66.71,5.1.71h28.86c3.43,0,4.48-.14,5.08-.69.46-.44.91-1.37.91-5.07v-56.93Zm-92.15-41.61c1.41,0,2.56-1.15,2.56-2.56v-25.34c0-1.41-1.15-2.56-2.56-2.56h-69c-18.04,0-27.81,4.28-27.81,26.86v111.46c0,22.58,9.78,26.86,27.81,26.86h69c1.41,0,2.56-1.15,2.56-2.56v-25.34c0-1.41-1.15-2.56-2.56-2.56h-54.37c-5.44,0-6-.54-6-5.76v-80.01c0-.38.03-.73.05-1.1l-.09.05c0-6.29-4.33-11.72-6.95-14.76-.91-1.05-.16-2.68,1.23-2.68h66.13Zm-267.23,32.25v123.59c0,22.58-9.78,26.86-27.82,26.86h-77.29c-1.41,0-2.56-1.15-2.56-2.56v-25.33c0-1.41,1.15-2.56,2.56-2.56h64.98c5.43,0,5.99-.54,5.99-5.76v-11.75h-56.75c-18.04,0-27.82-4.28-27.82-26.86v-75.63c0-22.58,9.78-26.86,27.82-26.86h63.07c18.04,0,27.82,4.28,27.82,26.86Zm-34.13,9.35c0-5.22-.56-5.75-5.99-5.75h-50.15c-1.39,0-2.14,1.63-1.23,2.68,2.61,3.03,6.91,8.42,6.95,14.68,0,.35-.01.7-.01,1.07v44.26c0,3.7.45,4.63.89,5.05.62.57,1.66.71,5.1.71h44.44v-62.69Zm-133.08-36.21h-63.07c-18.04,0-27.82,4.28-27.82,26.86v99.93c0,1.41,1.15,2.56,2.56,2.56h29.01c1.41,0,2.56-1.15,2.56-2.56v-77.6h0s0-1.29,0-1.29c0-6.29-4.33-11.72-6.95-14.76-.91-1.05-.16-2.68,1.23-2.68h40.6,0s9.57,0,9.57,0c5.44,0,6,.54,6,5.75v90.58c0,1.41,1.15,2.56,2.56,2.56h29.01c1.41,0,2.56-1.15,2.56-2.56v-99.93c0-22.58-9.78-26.86-27.82-26.86Zm-114.7-5.37c1.41,0,2.56-1.15,2.56-2.56v-25.34c0-1.41-1.15-2.56-2.56-2.56H57.76c-18.04,0-27.82,4.28-27.82,26.86v111.46c0,22.58,9.78,26.86,27.82,26.86h83.37c1.41,0,2.56-1.15,2.56-2.56v-25.34c0-1.41-1.15-2.56-2.56-2.56h-71.06c-5.44,0-6-.54-6-5.76v-33.98h55.66c1.41,0,2.56-1.15,2.56-2.56v-25.33c0-1.41-1.15-2.56-2.56-2.56h-55.66v-13.22h0s0-2.39,0-2.39h0v-1.04c0-6.29-4.33-11.72-6.95-14.76-.91-1.05-.16-2.68,1.23-2.68h82.77Z"></path><path class="cls-1" d="m538.54,13.2h-6.54c-17.46,0-27.59,4.38-27.59,26.67v6.91c0,1.2.05,2.35.09,3.41,0,.32.15,2.52.15,3.04,0,6.38-5.17,11.55-11.55,11.55-2.52,0-4.85-.81-6.75-2.18-1.14-.82-2.38-1.49-3.73-1.9-3.01-.92-6.6-1.22-10.73-1.22h-5.02c-13.5,0-21.33,3.36-21.33,20.63v5.3c0,17.27,7.83,20.63,21.33,20.63h5.02c13.5,0,21.28-3.32,21.33-20.45v-.18c.09-8.75,7.23-15.84,16.07-15.84,2.21,0,4.35.42,6.54,1.38,4.33,1.89,9.76,2.49,16.17,2.49h6.54c17.46,0,27.54-4.38,27.54-26.67v-6.91c0-22.29-10.09-26.67-27.54-26.67Z"></path></svg> 