<?xml version="1.0" encoding="UTF-8"?> <svg xmlns="http://www.w3.org/2000/svg" width="30" height="30" viewBox="0 0 30 30" fill="none"><g id="HR-ikon"><path id="Vector" d="M20.7402 23.9996V23.0996C20.7402 20.6096 18.6802 18.5996 16.1302 18.5996H10.6002C8.06024 18.5996 5.99023 20.6096 5.99023 23.0996V23.9996" stroke="#60BF69" stroke-width="1.5" stroke-linecap="round" stroke-linejoin="round"></path><path id="Vector_2" d="M25.9996 24.0003V23.1003C25.9996 21.5203 25.1596 20.1203 23.8896 19.3203" stroke="#60BF69" stroke-width="1.5" stroke-linecap="round" stroke-linejoin="round"></path><path id="Vector_3" d="M20.7402 6.5C22.2202 7.25 23.2402 8.76 23.2402 10.5C23.2402 11.91 22.5702 13.18 21.5302 14" stroke="#60BF69" stroke-width="1.5" stroke-linecap="round" stroke-linejoin="round"></path><path id="Vector_4" d="M13.3698 15C15.9158 15 17.9798 12.9853 17.9798 10.5C17.9798 8.01472 15.9158 6 13.3698 6C10.8237 6 8.75977 8.01472 8.75977 10.5C8.75977 12.9853 10.8237 15 13.3698 15Z" stroke="#60BF69" stroke-width="1.5" stroke-linecap="round" stroke-linejoin="round"></path></g></svg> 