<?xml version="1.0" encoding="UTF-8"?> <svg xmlns="http://www.w3.org/2000/svg" width="30" height="30" viewBox="0 0 30 30" fill="none"><g id="Kundeoverblik_ikon"><path id="Vector" d="M25.0502 13.2402C25.3102 13.5602 25.4502 13.9802 25.4502 14.4102C25.4502 14.8402 25.3102 15.2602 25.0502 15.5802C23.4302 17.5602 19.7502 21.4102 15.4502 21.4102C11.1502 21.4102 7.4702 17.5602 5.8502 15.5802C5.5902 15.2602 5.4502 14.8402 5.4502 14.4102C5.4502 13.9802 5.5902 13.5602 5.8502 13.2402C7.4702 11.2602 11.1502 7.41016 15.4502 7.41016C19.7502 7.41016 23.4302 11.2602 25.0502 13.2402Z" stroke="#8B54B2" stroke-width="1.5" stroke-linecap="round" stroke-linejoin="round"></path><path id="Vector_2" d="M15.4501 17.5198C17.1501 17.5198 18.5301 16.1298 18.5301 14.4098C18.5301 12.6898 17.1501 11.2998 15.4501 11.2998C13.7501 11.2998 12.3701 12.6898 12.3701 14.4098C12.3701 16.1298 13.7501 17.5198 15.4501 17.5198Z" stroke="#8B54B2" stroke-width="1.5" stroke-linecap="round" stroke-linejoin="round"></path></g></svg> 