<?xml version="1.0" encoding="UTF-8"?> <svg xmlns="http://www.w3.org/2000/svg" width="30" height="30" viewBox="0 0 30 30" fill="none"><g id="Ordrestyring_ikon"><path id="Vector" d="M14.1598 12.9402C14.4698 12.6302 14.4698 12.1402 14.1598 11.8302C13.8498 11.5202 13.3598 11.5202 13.0498 11.8302L14.1598 12.9402Z" fill="#295275"></path><path id="Vector_2" d="M11.8598 14.1299L11.2998 14.6899C11.6098 14.9999 12.0998 14.9999 12.4098 14.6899L11.8498 14.1299H11.8598Z" fill="#295275"></path><path id="Vector_3" d="M11.3698 12.5196C11.0598 12.2096 10.5698 12.2096 10.2598 12.5196C9.94984 12.8296 9.94984 13.3196 10.2598 13.6296L11.3698 12.5196Z" fill="#295275"></path><path id="Vector_4" d="M16.0498 12.1201C15.6198 12.1201 15.2598 12.4701 15.2598 12.9101C15.2598 13.3501 15.6098 13.7001 16.0498 13.7001V12.1301V12.1201Z" fill="#295275"></path><path id="Vector_5" d="M19.1904 13.6904C19.6204 13.6904 19.9804 13.3404 19.9804 12.9004C19.9804 12.4604 19.6304 12.1104 19.1904 12.1104V13.6804V13.6904Z" fill="#295275"></path><path id="Vector_6" d="M14.1598 17.1296C14.4698 16.8196 14.4698 16.3296 14.1598 16.0196C13.8498 15.7096 13.3598 15.7096 13.0498 16.0196L14.1598 17.1296Z" fill="#295275"></path><path id="Vector_7" d="M11.8598 18.3203L11.2998 18.8803C11.6098 19.1903 12.0998 19.1903 12.4098 18.8803L11.8498 18.3203H11.8598Z" fill="#295275"></path><path id="Vector_8" d="M11.3698 16.71C11.0598 16.4 10.5698 16.4 10.2598 16.71C9.94984 17.02 9.94984 17.51 10.2598 17.82L11.3698 16.71Z" fill="#295275"></path><path id="Vector_9" d="M16.0498 17.3604C15.6198 17.3604 15.2598 17.7104 15.2598 18.1504C15.2598 18.5904 15.6098 18.9404 16.0498 18.9404V17.3704V17.3604Z" fill="#295275"></path><path id="Vector_10" d="M19.1904 18.9296C19.6204 18.9296 19.9804 18.5796 19.9804 18.1396C19.9804 17.6996 19.6304 17.3496 19.1904 17.3496V18.9196V18.9296Z" fill="#295275"></path><path id="Vector_11" d="M18.54 7.73047L19.27 8.02047L18.54 7.73047Z" fill="#295275"></path><path id="Vector_12" d="M11.4605 7.73047L10.7305 8.02047L11.4605 7.73047Z" fill="#295275"></path><path id="Vector_13" d="M23.6403 9.24023H22.0703V20.7602H23.6403V9.24023Z" fill="#295275"></path><path id="Vector_14" d="M19.72 23.1201H10.29V24.6901H19.72V23.1201Z" fill="#295275"></path><path id="Vector_15" d="M7.93035 9.24023H6.36035V20.7602H7.93035V9.24023Z" fill="#295275"></path><path id="Vector_16" d="M19.72 5.30957H10.29V6.87957H19.72V5.30957Z" fill="#295275"></path><path id="Vector_17" d="M10.2904 23.1198C8.99035 23.1198 7.93035 22.0598 7.93035 20.7598H6.36035C6.36035 22.9298 8.12035 24.6898 10.2904 24.6898V23.1198Z" fill="#295275"></path><path id="Vector_18" d="M22.07 20.7598C22.07 22.0598 21.01 23.1198 19.71 23.1198V24.6898C21.88 24.6898 23.64 22.9298 23.64 20.7598H22.07Z" fill="#295275"></path><path id="Vector_19" d="M23.64 9.23957C23.64 7.06957 21.88 5.30957 19.71 5.30957V6.87957C21.01 6.87957 22.07 7.93957 22.07 9.23957H23.64Z" fill="#295275"></path><path id="Vector_20" d="M7.93035 9.23957C7.93035 7.93957 8.99035 6.87957 10.2904 6.87957V5.30957C8.12035 5.30957 6.36035 7.06957 6.36035 9.23957H7.93035Z" fill="#295275"></path><path id="Vector_21" d="M13.0561 11.8189L11.3096 13.5654L12.4197 14.6756L14.1663 12.929L13.0561 11.8189Z" fill="#295275"></path><path id="Vector_22" d="M11.3631 12.5236L10.2529 13.6338L11.2994 14.6803L12.4096 13.5702L11.3631 12.5236Z" fill="#295275"></path><path id="Vector_23" d="M19.1898 12.1201H16.0498V13.6901H19.1898V12.1201Z" fill="#295275"></path><path id="Vector_24" d="M13.0483 16.0122L11.3018 17.7588L12.4119 18.8689L14.1585 17.1224L13.0483 16.0122Z" fill="#295275"></path><path id="Vector_25" d="M11.366 16.716L10.2559 17.8262L11.3024 18.8727L12.4125 17.7625L11.366 16.716Z" fill="#295275"></path><path id="Vector_26" d="M19.1898 17.3604H16.0498V18.9304H19.1898V17.3604Z" fill="#295275"></path><path id="Vector_27" d="M18.4661 5.79848L17.8125 7.43262L19.2702 8.01566L19.9238 6.38153L18.4661 5.79848Z" fill="#295275"></path><path id="Vector_28" d="M17.0799 7.92969H12.9199V9.49969H17.0799V7.92969Z" fill="#295275"></path><path id="Vector_29" d="M11.5368 5.80172L10.0791 6.38477L10.7327 8.0189L12.1904 7.43585L11.5368 5.80172Z" fill="#295275"></path><path id="Vector_30" d="M12.9205 7.93043C12.6005 7.93043 12.3105 7.73043 12.1905 7.44043L10.7305 8.02043C11.0905 8.91043 11.9505 9.50043 12.9205 9.50043V7.93043Z" fill="#295275"></path><path id="Vector_31" d="M17.8101 7.44043C17.6901 7.74043 17.4001 7.93043 17.0801 7.93043V9.50043C18.0401 9.50043 18.9101 8.91043 19.2701 8.02043L17.8101 7.44043Z" fill="#295275"></path></g></svg> 