<?xml version="1.0" encoding="UTF-8"?> <svg xmlns="http://www.w3.org/2000/svg" width="30" height="30" viewBox="0 0 30 30" fill="none"><g id="Planaegning_ikon"><path id="Vector" fill-rule="evenodd" clip-rule="evenodd" d="M20.0901 18.6403C20.0901 18.3103 19.8201 18.0303 19.4801 18.0303C19.1401 18.0303 18.8701 18.3003 18.8701 18.6403V20.4603C18.8701 20.7903 19.1401 21.0703 19.4801 21.0703H20.9301C21.2601 21.0703 21.5401 20.8003 21.5401 20.4603C21.5401 20.1203 21.2701 19.8503 20.9301 19.8503H20.0801V18.6403H20.0901Z" fill="#E2BC5D"></path><path id="Vector_2" fill-rule="evenodd" clip-rule="evenodd" d="M19.8396 24.5504C17.2496 24.5504 15.1396 22.4404 15.1396 19.8504C15.1396 17.2604 17.2496 15.1504 19.8396 15.1504C22.4296 15.1504 24.5396 17.2604 24.5396 19.8504C24.5396 22.4404 22.4296 24.5504 19.8396 24.5504ZM19.8396 16.6804C18.0896 16.6804 16.6696 18.1004 16.6696 19.8504C16.6696 21.6004 18.0896 23.0204 19.8396 23.0204C21.5896 23.0204 23.0096 21.6004 23.0096 19.8504C23.0096 18.1004 21.5896 16.6804 19.8396 16.6804Z" fill="#E2BC5D"></path><path id="Vector_3" fill-rule="evenodd" clip-rule="evenodd" d="M8.63996 24.54C6.88996 24.54 5.45996 23.11 5.45996 21.36V10.16C5.45996 8.40996 6.88996 6.97996 8.63996 6.97996H9.26996V6.21996C9.26996 5.79996 9.60996 5.45996 10.03 5.45996C10.45 5.45996 10.79 5.79996 10.79 6.21996V6.97996H14.24V6.21996C14.24 5.79996 14.58 5.45996 15 5.45996C15.42 5.45996 15.76 5.79996 15.76 6.21996V6.97996H19.09V6.21996C19.09 5.79996 19.43 5.45996 19.85 5.45996C20.27 5.45996 20.61 5.79996 20.61 6.21996V6.97996H21.37C23.12 6.97996 24.55 8.40996 24.55 10.16V13.91C24.55 14.33 24.21 14.67 23.79 14.67C23.37 14.67 23.03 14.33 23.03 13.91V10.16C23.03 9.23996 22.28 8.49996 21.37 8.49996H20.61V9.24996C20.61 9.66996 20.27 10.01 19.85 10.01C19.43 10.01 19.09 9.66996 19.09 9.24996V8.49996H15.76V9.24996C15.76 9.66996 15.42 10.01 15 10.01C14.58 10.01 14.24 9.66996 14.24 9.24996V8.49996H10.79V9.24996C10.79 9.66996 10.45 10.01 10.03 10.01C9.60996 10.01 9.26996 9.66996 9.26996 9.24996V8.49996H8.63996C7.71996 8.49996 6.97996 9.24996 6.97996 10.16V21.36C6.97996 22.28 7.72996 23.02 8.63996 23.02H13.9C14.32 23.02 14.66 23.36 14.66 23.78C14.66 24.2 14.32 24.54 13.9 24.54H8.63996ZM13.33 20.53C12.95 20.53 12.63 20.22 12.63 19.83C12.63 19.44 12.94 19.13 13.33 19.13C13.72 19.13 14.03 19.44 14.03 19.83C14.03 20.22 13.72 20.53 13.33 20.53ZM10.06 20.53C9.67996 20.53 9.35996 20.22 9.35996 19.83C9.35996 19.44 9.66996 19.13 10.06 19.13C10.45 19.13 10.76 19.44 10.76 19.83C10.76 20.22 10.45 20.53 10.06 20.53ZM13.33 17.25C12.95 17.25 12.63 16.94 12.63 16.55C12.63 16.16 12.94 15.85 13.33 15.85C13.72 15.85 14.03 16.16 14.03 16.55C14.03 16.94 13.72 17.25 13.33 17.25ZM10.06 17.25C9.67996 17.25 9.35996 16.94 9.35996 16.55C9.35996 16.16 9.66996 15.85 10.06 15.85C10.45 15.85 10.76 16.16 10.76 16.55C10.76 16.94 10.45 17.25 10.06 17.25ZM19.91 13.94C19.53 13.94 19.21 13.63 19.21 13.24C19.21 12.85 19.52 12.54 19.91 12.54C20.3 12.54 20.61 12.85 20.61 13.24C20.61 13.63 20.3 13.94 19.91 13.94ZM16.64 13.94C16.26 13.94 15.94 13.63 15.94 13.24C15.94 12.85 16.25 12.54 16.64 12.54C17.03 12.54 17.34 12.85 17.34 13.24C17.34 13.63 17.03 13.94 16.64 13.94ZM13.33 13.94C12.95 13.94 12.63 13.63 12.63 13.24C12.63 12.85 12.94 12.54 13.33 12.54C13.72 12.54 14.03 12.85 14.03 13.24C14.03 13.63 13.72 13.94 13.33 13.94ZM10.06 13.94C9.67996 13.94 9.35996 13.63 9.35996 13.24C9.35996 12.85 9.66996 12.54 10.06 12.54C10.45 12.54 10.76 12.85 10.76 13.24C10.76 13.63 10.45 13.94 10.06 13.94Z" fill="#E2BC5D"></path></g></svg> 