<?xml version="1.0" encoding="UTF-8"?> <svg xmlns="http://www.w3.org/2000/svg" width="30" height="30" viewBox="0 0 30 30" fill="none"><g id="Platformen_ikon_v2"><path id="Vector" d="M9.58984 22.9496C9.58984 24.6796 10.9898 26.0896 12.7298 26.0896H23.1898C24.9198 26.0896 26.3298 24.6896 26.3298 22.9496V12.4896C26.3298 10.7596 24.9298 9.34961 23.1898 9.34961" stroke="#E99838" stroke-width="1.5" stroke-linecap="round" stroke-linejoin="round"></path><path id="Vector_2" d="M10.2898 15.1396H17.8198M17.8198 10.8996V9.01961M17.8198 9.01961H15.9398M17.8198 9.01961L14.9998 11.8396L12.4498 9.95961L10.2998 11.8396M10.2998 18.4296H14.0598M8.72984 22.0896H19.1898C20.9198 22.0896 22.3298 20.6896 22.3298 18.9496V8.48961C22.3298 6.75961 20.9298 5.34961 19.1898 5.34961H8.72984C6.99984 5.34961 5.58984 6.74961 5.58984 8.48961V18.9496C5.58984 20.6796 6.98984 22.0896 8.72984 22.0896Z" stroke="#E99838" stroke-width="1.5" stroke-linecap="round" stroke-linejoin="round"></path></g></svg> 