<?xml version="1.0" encoding="UTF-8"?> <svg xmlns="http://www.w3.org/2000/svg" id="Layer_1" data-name="Layer 1" viewBox="0 0 960 740"><defs><style> .cls-1 { fill: #3abf47; stroke-width: 0px; } </style></defs><path class="cls-1" d="m739.36,7.2h-51.25c-136.78,0-216.18,34.29-216.18,208.97v54.14c0,9.38.36,18.41.72,26.71,0,2.53,1.15,19.74,1.15,23.85,0,50-40.53,90.53-90.53,90.53-19.74,0-38-6.32-52.87-17.04-8.93-6.44-18.68-11.68-29.21-14.9-23.56-7.2-51.75-9.54-84.07-9.54h-39.34c-105.75,0-167.1,26.35-167.1,161.69v41.51c0,135.34,61.35,161.69,167.1,161.69h39.34c105.75,0,166.74-25.98,167.1-160.25v-1.44c.72-68.57,56.66-124.15,125.96-124.15,17.32,0,33.93,3.61,48.72,9.75,1.08.36,1.8.72,2.53,1.08,33.93,14.8,76.51,19.49,126.68,19.49h51.25c136.79,0,215.82-34.28,215.82-208.97v-54.14c0-174.68-79.04-208.97-215.82-208.97Z"></path></svg> 