<?xml version="1.0" encoding="UTF-8"?> <svg xmlns="http://www.w3.org/2000/svg" id="Layer_1" data-name="Layer 1" viewBox="0 0 990 970"><defs><style> .cls-1 { fill: #3abf47; } .cls-1, .cls-2 { stroke-width: 0px; } .cls-2 { fill: #153149; } </style></defs><path class="cls-2" d="m443.97,962.4c-277.07,0-437.47-69.21-437.47-423.03v-109.34C6.5,76.21,166.9,7,443.97,7h103.48c277.07,0,437.47,69.21,437.47,423.03v109.34c0,353.82-160.4,423.03-437.47,423.03h-103.48Z"></path><path class="cls-1" d="m641.35,260.99h-31.52c-84.11,0-132.94,21.09-132.94,128.5v33.29c0,5.77.22,11.32.44,16.42,0,1.56.71,12.14.71,14.67,0,30.75-24.92,55.67-55.67,55.67-12.14,0-23.37-3.89-32.51-10.48-5.49-3.96-11.49-7.18-17.96-9.16-14.49-4.43-31.82-5.86-51.7-5.86h-24.19c-65.03,0-102.76,16.2-102.76,99.43v25.52c0,83.23,37.73,99.43,102.76,99.43h24.19c65.03,0,102.54-15.98,102.76-98.54v-.89c.44-42.17,34.84-76.35,77.46-76.35,10.65,0,20.86,2.22,29.96,5.99.67.22,1.11.44,1.55.67,20.86,9.1,47.05,11.99,77.9,11.99h31.52c84.12,0,132.72-21.08,132.72-128.5v-33.29c0-107.42-48.6-128.5-132.72-128.5Z"></path></svg> 