<?xml version="1.0" encoding="UTF-8"?> <svg xmlns="http://www.w3.org/2000/svg" id="Layer_1" data-name="Layer 1" viewBox="0 0 1067.57 328.38"><defs><style> .cls-1 { fill: #3abf47; } .cls-1, .cls-2 { stroke-width: 0px; } .cls-2 { fill: #153149; } </style></defs><g><g><path class="cls-1" d="m29.95,264.47c0-.42.28-.7.69-.7h16.74c9.52,0,14.24,4.86,14.24,12.43,0,5.49-2.64,8.82-6.32,10.28v.14c3.19.9,7.15,4.59,7.15,10.91,0,8.82-5.56,13.48-15.42,13.48h-16.39c-.42,0-.69-.28-.69-.7v-45.85Zm17.3,19.73c5.21,0,8.27-2.98,8.27-7.36s-3.06-7.43-8.27-7.43h-10.7c-.28,0-.42.14-.42.42v13.96c0,.28.14.42.42.42h10.7Zm-10.7,21.19h11.05c5.63,0,8.68-3.06,8.68-7.78s-3.06-7.78-8.68-7.78h-11.05c-.28,0-.42.14-.42.42v14.73c0,.28.14.42.42.42Z"></path><path class="cls-1" d="m91.94,311.01c-.42,0-.69-.28-.69-.7v-3.12h-.07c-1.74,2.78-4.79,4.58-9.1,4.58-7.29,0-11.53-5-11.53-12.57v-20.77c0-.42.28-.7.69-.7h4.45c.42,0,.69.28.69.7v19.38c0,5.42,2.43,8.54,7.36,8.54,4.51,0,7.5-3.2,7.5-8.2v-19.73c0-.42.28-.7.69-.7h4.45c.42,0,.7.28.7.7v31.88c0,.42-.28.7-.7.7h-4.45Z"></path><path class="cls-1" d="m104.95,306.77c-.28-.28-.28-.69,0-.97l2.85-3.06c.28-.28.69-.28.97,0,2.5,2.15,6.25,3.82,10.28,3.82,4.86,0,7.29-2.08,7.29-5.07,0-2.64-1.25-4.1-6.46-4.65l-3.54-.35c-6.53-.7-9.93-3.96-9.93-9.38,0-6.32,4.52-10.14,12.37-10.14,4.86,0,9.03,1.6,11.81,3.68.35.21.35.63.14.97l-2.36,2.99c-.28.35-.63.35-.97.14-2.15-1.39-5.56-2.71-8.96-2.71-4.17,0-6.32,1.87-6.32,4.58s1.6,4.03,6.53,4.52l3.47.35c6.74.63,10,4.03,10,9.38,0,6.53-4.72,10.91-13.41,10.91-6.46,0-11.04-2.64-13.75-5Z"></path><path class="cls-1" d="m140.53,270.24c-.42,0-.69-.28-.69-.7v-5.07c0-.42.28-.7.69-.7h4.72c.42,0,.69.28.69.7v5.07c0,.42-.28.7-.69.7h-4.72Zm.14,40.77c-.42,0-.69-.28-.69-.7v-31.88c0-.42.28-.7.69-.7h4.45c.42,0,.69.28.69.7v31.88c0,.42-.28.7-.69.7h-4.45Z"></path><path class="cls-1" d="m177.38,311.01c-.42,0-.7-.28-.7-.7v-19.45c0-5.35-2.43-8.47-7.43-8.47-4.52,0-7.64,3.19-7.64,8.13v19.8c0,.42-.28.7-.69.7h-4.45c-.42,0-.69-.28-.69-.7v-31.88c0-.42.28-.7.69-.7h4.45c.42,0,.69.28.69.7v3.06h.07c1.6-2.57,4.79-4.52,9.31-4.52,7.22,0,11.53,4.93,11.53,12.5v20.84c0,.42-.28.7-.69.7h-4.45Z"></path><path class="cls-1" d="m191.82,302.75c-.7-2.15-1.11-4.59-1.11-8.41s.35-6.39,1.04-8.4c1.88-5.77,6.74-8.96,13.06-8.96s11.18,3.26,13.06,8.96c.69,2.15,1.04,4.45,1.04,9.51,0,.42-.28.7-.76.7h-21.05c-.28,0-.42.14-.42.42,0,1.81.21,2.92.56,4.03,1.32,3.82,4.31,5.77,8.4,5.77s6.74-1.6,8.54-3.68c.35-.35.69-.42,1.04-.14l2.85,2.57c.35.28.35.63.07.97-2.64,3.33-7.16,5.69-12.99,5.69-6.74,0-11.53-3.26-13.34-9.03Zm20.7-11.25c.28,0,.42-.14.42-.42,0-1.53-.14-2.71-.49-3.75-1.11-3.33-3.89-5.21-7.64-5.21s-6.53,1.87-7.64,5.21c-.35,1.04-.49,2.22-.49,3.75,0,.28.14.42.42.42h15.42Z"></path><path class="cls-1" d="m225.51,306.77c-.28-.28-.28-.69,0-.97l2.85-3.06c.28-.28.69-.28.97,0,2.5,2.15,6.25,3.82,10.28,3.82,4.86,0,7.29-2.08,7.29-5.07,0-2.64-1.25-4.1-6.46-4.65l-3.54-.35c-6.53-.7-9.93-3.96-9.93-9.38,0-6.32,4.52-10.14,12.37-10.14,4.86,0,9.03,1.6,11.81,3.68.35.21.35.63.14.97l-2.36,2.99c-.28.35-.63.35-.97.14-2.15-1.39-5.56-2.71-8.96-2.71-4.17,0-6.32,1.87-6.32,4.58s1.6,4.03,6.53,4.52l3.47.35c6.74.63,10,4.03,10,9.38,0,6.53-4.72,10.91-13.41,10.91-6.46,0-11.04-2.64-13.75-5Z"></path><path class="cls-1" d="m259.1,306.77c-.28-.28-.28-.69,0-.97l2.85-3.06c.28-.28.69-.28.97,0,2.5,2.15,6.25,3.82,10.28,3.82,4.86,0,7.29-2.08,7.29-5.07,0-2.64-1.25-4.1-6.46-4.65l-3.54-.35c-6.53-.7-9.93-3.96-9.93-9.38,0-6.32,4.52-10.14,12.37-10.14,4.86,0,9.03,1.6,11.81,3.68.35.21.35.63.14.97l-2.36,2.99c-.28.35-.63.35-.97.14-2.15-1.39-5.56-2.71-8.96-2.71-4.17,0-6.32,1.87-6.32,4.58s1.6,4.03,6.53,4.52l3.47.35c6.74.63,10,4.03,10,9.38,0,6.53-4.72,10.91-13.41,10.91-6.46,0-11.04-2.64-13.75-5Z"></path><path class="cls-1" d="m312.92,311.01c-.42,0-.69-.28-.69-.7v-45.85c0-.42.28-.7.69-.7h16.81c9.1,0,15,5.56,15,14.1s-5.9,14.1-15,14.1h-10.91c-.28,0-.42.14-.42.42v17.92c0,.42-.28.7-.69.7h-4.79Zm25.7-33.13c0-5.14-3.4-8.34-9.24-8.34h-10.56c-.28,0-.42.14-.42.42v15.84c0,.28.14.42.42.42h10.56c5.83,0,9.24-3.2,9.24-8.34Z"></path><path class="cls-1" d="m360.48,311.36c-5.84,0-8.13-2.78-8.13-8.75v-38.14c0-.42.28-.7.7-.7h4.45c.42,0,.69.28.69.7v37.79c0,2.78,1.04,3.68,3.33,3.68h1.32c.42,0,.69.28.69.7v4.03c0,.42-.28.7-.69.7h-2.36Z"></path><path class="cls-1" d="m391.54,311.01c-.42,0-.69-.28-.69-.7v-2.92h-.07c-1.53,2.5-4.79,4.38-9.86,4.38-6.32,0-11.18-3.26-11.18-10s4.86-10.28,12.99-10.28h7.57c.28,0,.42-.14.42-.42v-2.43c0-4.58-1.81-6.53-7.99-6.53-3.75,0-6.11.97-8.06,2.36-.35.28-.76.28-.97-.07l-1.88-3.19c-.21-.42-.14-.7.14-.97,2.5-1.95,6.39-3.26,11.32-3.26,9.45,0,13.06,3.12,13.06,11.32v22.02c0,.42-.28.7-.7.7h-4.1Zm-.83-10.77v-3.68c0-.28-.14-.42-.42-.42h-6.67c-5.77,0-8.27,1.67-8.27,5.42,0,3.4,2.5,5.21,6.95,5.21,5.21,0,8.4-2.43,8.4-6.53Z"></path><path class="cls-1" d="m416.04,311.36c-6.46,0-8.96-2.92-8.96-9.45v-19.03c0-.28-.14-.42-.42-.42h-2.78c-.42,0-.69-.28-.69-.69v-3.33c0-.42.28-.7.69-.7h2.78c.28,0,.42-.14.42-.42v-9.38c0-.42.28-.69.7-.69h4.45c.42,0,.7.28.7.69v9.38c0,.28.14.42.42.42h5.28c.42,0,.69.28.69.7v3.33c0,.42-.28.69-.69.69h-5.28c-.28,0-.42.14-.42.42v18.82c0,3.33,1.25,4.24,4.24,4.24h1.46c.42,0,.69.28.69.7v4.03c0,.42-.28.7-.69.7h-2.57Z"></path><path class="cls-1" d="m430.24,311.01c-.42,0-.7-.28-.7-.7v-27.44c0-.28-.14-.42-.42-.42h-2.85c-.42,0-.7-.28-.7-.69v-3.33c0-.42.28-.7.7-.7h2.85c.28,0,.42-.14.42-.42v-2.85c0-7.85,3.19-10.7,10.14-10.7h2.57c.42,0,.7.28.7.7v4.03c0,.42-.28.7-.7.7h-1.81c-4.24,0-5.07.9-5.07,5v3.13c0,.28.14.42.42.42h6.46c.42,0,.7.28.7.7v3.33c0,.42-.28.69-.7.69h-6.46c-.28,0-.42.14-.42.42v27.44c0,.42-.28.7-.69.7h-4.45Z"></path><path class="cls-1" d="m448.88,302.82c-.77-2.29-1.11-4.59-1.11-8.48s.35-6.11,1.11-8.4c1.81-5.7,6.67-8.96,13.13-8.96s11.32,3.26,13.13,8.96c.77,2.29,1.11,4.58,1.11,8.4s-.35,6.18-1.11,8.48c-1.81,5.63-6.67,8.96-13.13,8.96s-11.32-3.33-13.13-8.96Zm20.63-1.67c.56-1.81.77-3.61.77-6.81s-.21-4.93-.77-6.74c-1.11-3.33-3.82-5.21-7.5-5.21s-6.39,1.87-7.5,5.21c-.56,1.81-.77,3.54-.77,6.74s.21,5,.77,6.81c1.11,3.33,3.82,5.21,7.5,5.21s6.39-1.88,7.5-5.21Z"></path><path class="cls-1" d="m485.39,311.01c-.42,0-.69-.28-.69-.7v-31.88c0-.42.28-.7.69-.7h4.45c.42,0,.7.28.7.7v3.4h.07c1.46-2.85,4.38-4.86,8.82-4.86,2.64,0,5.14.97,6.81,2.5.35.35.42.63.14.97l-2.57,3.4c-.28.35-.63.42-.97.14-1.53-.97-3.2-1.6-5.14-1.6-5.07,0-7.16,3.96-7.16,9.72v18.2c0,.42-.28.7-.7.7h-4.45Z"></path><path class="cls-1" d="m555.59,311.01c-.42,0-.69-.28-.69-.7v-19.45c0-5.35-2.43-8.47-7.43-8.47-4.45,0-7.64,3.19-7.64,8.13v19.8c0,.42-.28.7-.7.7h-4.45c-.42,0-.7-.28-.7-.7v-19.45c0-5.35-2.43-8.47-7.43-8.47-4.51,0-7.64,3.19-7.64,8.13v19.8c0,.42-.28.7-.7.7h-4.45c-.42,0-.69-.28-.69-.7v-31.88c0-.42.28-.7.69-.7h4.45c.42,0,.7.28.7.7v3.06h.07c1.6-2.57,4.79-4.52,9.31-4.52s7.85,1.88,9.73,5.21h.07c2.29-3.19,5.7-5.21,10.77-5.21,7.71,0,11.88,4.93,11.88,12.5v20.84c0,.42-.28.7-.7.7h-4.45Z"></path><path class="cls-1" d="m590.24,311.01c-.42,0-.7-.28-.7-.7v-27.44c0-.28-.14-.42-.42-.42h-2.85c-.42,0-.7-.28-.7-.69v-3.33c0-.42.28-.7.7-.7h2.85c.28,0,.42-.14.42-.42v-2.85c0-7.85,3.19-10.7,10.14-10.7h2.57c.42,0,.7.28.7.7v4.03c0,.42-.28.7-.7.7h-1.81c-4.24,0-5.07.9-5.07,5v3.13c0,.28.14.42.42.42h6.46c.42,0,.7.28.7.7v3.33c0,.42-.28.69-.7.69h-6.46c-.28,0-.42.14-.42.42v27.44c0,.42-.28.7-.69.7h-4.45Z"></path><path class="cls-1" d="m608.88,302.82c-.77-2.29-1.11-4.59-1.11-8.48s.35-6.11,1.11-8.4c1.81-5.7,6.67-8.96,13.13-8.96s11.32,3.26,13.13,8.96c.77,2.29,1.11,4.58,1.11,8.4s-.35,6.18-1.11,8.48c-1.81,5.63-6.67,8.96-13.13,8.96s-11.32-3.33-13.13-8.96Zm20.63-1.67c.56-1.81.77-3.61.77-6.81s-.21-4.93-.77-6.74c-1.11-3.33-3.82-5.21-7.5-5.21s-6.39,1.87-7.5,5.21c-.56,1.81-.77,3.54-.77,6.74s.21,5,.77,6.81c1.11,3.33,3.82,5.21,7.5,5.21s6.39-1.88,7.5-5.21Z"></path><path class="cls-1" d="m645.39,311.01c-.42,0-.69-.28-.69-.7v-31.88c0-.42.28-.7.69-.7h4.45c.42,0,.7.28.7.7v3.4h.07c1.46-2.85,4.38-4.86,8.82-4.86,2.64,0,5.14.97,6.81,2.5.35.35.42.63.14.97l-2.57,3.4c-.28.35-.63.42-.97.14-1.53-.97-3.2-1.6-5.14-1.6-5.07,0-7.16,3.96-7.16,9.72v18.2c0,.42-.28.7-.7.7h-4.45Z"></path><path class="cls-1" d="m689.56,300.73c-.9-2.71-1.25-5.56-1.25-13.34s.35-10.63,1.25-13.34c2.43-7.3,8.13-11.05,16.05-11.05s13.68,3.75,16.11,11.05c.9,2.71,1.25,5.56,1.25,13.34s-.35,10.63-1.25,13.34c-2.43,7.29-8.13,11.04-16.11,11.04s-13.61-3.75-16.05-11.04Zm26.12-1.74c.56-1.74,1.04-4.79,1.04-11.6s-.49-9.86-1.04-11.6c-1.46-4.52-4.79-7.02-10.07-7.02s-8.55,2.5-10,7.02c-.56,1.74-1.04,4.79-1.04,11.6s.49,9.86,1.04,11.6c1.46,4.51,4.79,7.02,10,7.02s8.61-2.5,10.07-7.02Z"></path><path class="cls-1" d="m732.82,323.52c-.42,0-.69-.28-.69-.7v-44.39c0-.42.28-.7.69-.7h4.45c.42,0,.7.28.7.7v3.12h.07c1.6-2.64,4.45-4.58,9.45-4.58,5.77,0,9.79,2.71,11.46,7.99.9,2.64,1.18,5.28,1.18,9.38s-.28,6.81-1.18,9.45c-1.67,5.28-5.69,7.99-11.46,7.99-5,0-7.85-2.01-9.45-4.65h-.07v15.7c0,.42-.28.7-.7.7h-4.45Zm20.56-22.23c.56-1.74.76-3.89.76-6.95s-.21-5.14-.76-6.95c-1.11-3.26-3.61-5-7.29-5s-6.25,1.67-7.36,5c-.56,1.67-.77,3.61-.77,6.95s.21,5.35.77,6.95c1.11,3.33,3.68,5.07,7.36,5.07s6.18-1.81,7.29-5.07Z"></path><path class="cls-1" d="m778.38,311.36c-6.46,0-8.96-2.92-8.96-9.45v-19.03c0-.28-.14-.42-.42-.42h-2.78c-.42,0-.69-.28-.69-.69v-3.33c0-.42.28-.7.69-.7h2.78c.28,0,.42-.14.42-.42v-9.38c0-.42.28-.69.7-.69h4.45c.42,0,.7.28.7.69v9.38c0,.28.14.42.42.42h5.28c.42,0,.69.28.69.7v3.33c0,.42-.28.69-.69.69h-5.28c-.28,0-.42.14-.42.42v18.82c0,3.33,1.25,4.24,4.24,4.24h1.46c.42,0,.69.28.69.7v4.03c0,.42-.28.7-.69.7h-2.57Z"></path><path class="cls-1" d="m789.86,270.24c-.42,0-.7-.28-.7-.7v-5.07c0-.42.28-.7.7-.7h4.72c.42,0,.7.28.7.7v5.07c0,.42-.28.7-.7.7h-4.72Zm.14,40.77c-.42,0-.69-.28-.69-.7v-31.88c0-.42.28-.7.69-.7h4.45c.42,0,.7.28.7.7v31.88c0,.42-.28.7-.7.7h-4.45Z"></path><path class="cls-1" d="m847.63,311.01c-.42,0-.69-.28-.69-.7v-19.45c0-5.35-2.43-8.47-7.43-8.47-4.45,0-7.64,3.19-7.64,8.13v19.8c0,.42-.28.7-.7.7h-4.45c-.42,0-.7-.28-.7-.7v-19.45c0-5.35-2.43-8.47-7.43-8.47-4.51,0-7.64,3.19-7.64,8.13v19.8c0,.42-.28.7-.7.7h-4.45c-.42,0-.69-.28-.69-.7v-31.88c0-.42.28-.7.69-.7h4.45c.42,0,.7.28.7.7v3.06h.07c1.6-2.57,4.79-4.52,9.31-4.52s7.85,1.88,9.73,5.21h.07c2.29-3.19,5.7-5.21,10.77-5.21,7.71,0,11.88,4.93,11.88,12.5v20.84c0,.42-.28.7-.7.7h-4.45Z"></path><path class="cls-1" d="m863.14,270.24c-.42,0-.7-.28-.7-.7v-5.07c0-.42.28-.7.7-.7h4.72c.42,0,.7.28.7.7v5.07c0,.42-.28.7-.7.7h-4.72Zm.14,40.77c-.42,0-.69-.28-.69-.7v-31.88c0-.42.28-.7.69-.7h4.45c.42,0,.7.28.7.7v31.88c0,.42-.28.7-.7.7h-4.45Z"></path><path class="cls-1" d="m877.01,311.01c-.42,0-.7-.28-.7-.7v-3.68c0-.28.07-.56.28-.77l18.27-22.71v-.14h-16.95c-.42,0-.7-.28-.7-.69v-3.89c0-.42.28-.7.7-.7h23.2c.42,0,.7.28.7.7v3.89c0,.35-.07.49-.28.76l-18.13,22.51v.14h17.71c.42,0,.7.28.7.69v3.89c0,.42-.28.7-.7.7h-24.1Z"></path><path class="cls-1" d="m930.56,311.01c-.42,0-.7-.28-.7-.7v-2.92h-.07c-1.53,2.5-4.79,4.38-9.86,4.38-6.32,0-11.19-3.26-11.19-10s4.86-10.28,12.99-10.28h7.57c.28,0,.42-.14.42-.42v-2.43c0-4.58-1.81-6.53-7.99-6.53-3.75,0-6.11.97-8.06,2.36-.35.28-.77.28-.97-.07l-1.88-3.19c-.21-.42-.14-.7.14-.97,2.5-1.95,6.39-3.26,11.32-3.26,9.45,0,13.06,3.12,13.06,11.32v22.02c0,.42-.28.7-.7.7h-4.1Zm-.83-10.77v-3.68c0-.28-.14-.42-.42-.42h-6.67c-5.77,0-8.27,1.67-8.27,5.42,0,3.4,2.5,5.21,6.95,5.21,5.21,0,8.41-2.43,8.41-6.53Z"></path><path class="cls-1" d="m955.06,311.36c-6.46,0-8.96-2.92-8.96-9.45v-19.03c0-.28-.14-.42-.42-.42h-2.78c-.42,0-.69-.28-.69-.69v-3.33c0-.42.28-.7.69-.7h2.78c.28,0,.42-.14.42-.42v-9.38c0-.42.28-.69.7-.69h4.45c.42,0,.7.28.7.69v9.38c0,.28.14.42.42.42h5.28c.42,0,.69.28.69.7v3.33c0,.42-.28.69-.69.69h-5.28c-.28,0-.42.14-.42.42v18.82c0,3.33,1.25,4.24,4.24,4.24h1.46c.42,0,.69.28.69.7v4.03c0,.42-.28.7-.69.7h-2.57Z"></path><path class="cls-1" d="m966.54,270.24c-.42,0-.7-.28-.7-.7v-5.07c0-.42.28-.7.7-.7h4.72c.42,0,.7.28.7.7v5.07c0,.42-.28.7-.7.7h-4.72Zm.14,40.77c-.42,0-.69-.28-.69-.7v-31.88c0-.42.28-.7.69-.7h4.45c.42,0,.7.28.7.7v31.88c0,.42-.28.7-.7.7h-4.45Z"></path><path class="cls-1" d="m981.28,302.82c-.77-2.29-1.11-4.59-1.11-8.48s.35-6.11,1.11-8.4c1.81-5.7,6.67-8.96,13.13-8.96s11.32,3.26,13.13,8.96c.77,2.29,1.11,4.58,1.11,8.4s-.35,6.18-1.11,8.48c-1.81,5.63-6.67,8.96-13.13,8.96s-11.32-3.33-13.13-8.96Zm20.63-1.67c.56-1.81.77-3.61.77-6.81s-.21-4.93-.77-6.74c-1.11-3.33-3.82-5.21-7.5-5.21s-6.39,1.87-7.5,5.21c-.56,1.81-.77,3.54-.77,6.74s.21,5,.77,6.81c1.11,3.33,3.82,5.21,7.5,5.21s6.39-1.88,7.5-5.21Z"></path><path class="cls-1" d="m1038.7,311.01c-.42,0-.7-.28-.7-.7v-19.45c0-5.35-2.43-8.47-7.43-8.47-4.51,0-7.64,3.19-7.64,8.13v19.8c0,.42-.28.7-.7.7h-4.45c-.42,0-.69-.28-.69-.7v-31.88c0-.42.28-.7.69-.7h4.45c.42,0,.7.28.7.7v3.06h.07c1.6-2.57,4.79-4.52,9.31-4.52,7.23,0,11.53,4.93,11.53,12.5v20.84c0,.42-.28.7-.7.7h-4.45Z"></path></g><path class="cls-2" d="m491.2,122.63v64.65c0,1.41-1.15,2.56-2.56,2.56h-31.33c-1.41,0-2.56-1.15-2.56-2.56v-64.65c0-1.41,1.15-2.56,2.56-2.56h31.33c1.41,0,2.56,1.15,2.56,2.56Zm471.51,18.84v12.16c0,3.7.45,4.63.89,5.05.62.56,1.66.71,5.1.71h65.95c1.41,0,2.56,1.15,2.56,2.56v25.34c0,1.41-1.15,2.56-2.56,2.56h-78.25c-18.04,0-27.82-4.28-27.82-26.86v-75.63c0-22.58,9.78-26.86,27.82-26.86h58.27c18.04,0,27.82,4.28,27.82,26.86v27.26c0,22.58-9.78,26.86-27.82,26.86h-51.96Zm0-33.91v3.46h39.65c5.43,0,5.99-.54,5.99-5.76v-8.56c0-5.22-.56-5.75-5.99-5.75h-45.3c-1.39,0-2.14,1.63-1.23,2.68,2.51,2.91,6.06,7.96,6.88,13.93Zm-407.9-16.49h-31.33c-1.41,0-2.56,1.15-2.56,2.56v93.65c0,1.41,1.15,2.56,2.56,2.56h31.33c1.41,0,2.56-1.15,2.56-2.56v-93.65c0-1.41-1.15-2.56-2.56-2.56Zm355.07-30.58h-43.24c-18.04,0-27.82,4.28-27.82,26.86v99.93c0,1.41,1.15,2.56,2.56,2.56h29.01c1.41,0,2.56-1.15,2.56-2.56v-90.58c0-5.22.56-5.75,6-5.75h30.93c1.41,0,2.56-1.15,2.56-2.56v-25.33c0-1.41-1.15-2.56-2.56-2.56Zm-93.35,26.86v75.63c0,22.58-9.78,26.86-27.82,26.86h-53.47c-18.04,0-27.82-4.28-27.82-26.86v-75.63c0-22.58,9.78-26.86,27.82-26.86h53.47c18.04,0,27.82,4.28,27.82,26.86Zm-34.13,9.35c0-5.21-.56-5.75-5.96-5.75h0s-.03,0-.03,0h-40.57c-1.39,0-2.14,1.63-1.23,2.68,2.46,2.85,6.41,7.8,6.9,13.58,0,.09,0,.17.01.26.02.31.04.61.04.93h0s0,45.24,0,45.24c0,3.7.45,4.63.89,5.05.62.56,1.66.71,5.1.71h28.86c3.43,0,4.48-.14,5.08-.69.46-.44.91-1.37.91-5.07v-56.93Zm-92.15-41.61c1.41,0,2.56-1.15,2.56-2.56v-25.34c0-1.41-1.15-2.56-2.56-2.56h-69c-18.04,0-27.81,4.28-27.81,26.86v111.46c0,22.58,9.78,26.86,27.81,26.86h69c1.41,0,2.56-1.15,2.56-2.56v-25.34c0-1.41-1.15-2.56-2.56-2.56h-54.37c-5.44,0-6-.54-6-5.76v-80.01c0-.38.03-.73.05-1.1l-.09.05c0-6.29-4.33-11.72-6.95-14.76-.91-1.05-.16-2.68,1.23-2.68h66.13Zm-267.23,32.25v123.59c0,22.58-9.78,26.86-27.82,26.86h-77.29c-1.41,0-2.56-1.15-2.56-2.56v-25.33c0-1.41,1.15-2.56,2.56-2.56h64.98c5.43,0,5.99-.54,5.99-5.76v-11.75h-56.75c-18.04,0-27.82-4.28-27.82-26.86v-75.63c0-22.58,9.78-26.86,27.82-26.86h63.07c18.04,0,27.82,4.28,27.82,26.86Zm-34.13,9.35c0-5.22-.56-5.75-5.99-5.75h-50.15c-1.39,0-2.14,1.63-1.23,2.68,2.61,3.03,6.91,8.42,6.95,14.68,0,.35-.01.7-.01,1.07v44.26c0,3.7.45,4.63.89,5.05.62.57,1.66.71,5.1.71h44.44v-62.69Zm-133.08-36.21h-63.07c-18.04,0-27.82,4.28-27.82,26.86v99.93c0,1.41,1.15,2.56,2.56,2.56h29.01c1.41,0,2.56-1.15,2.56-2.56v-77.6h0s0-1.29,0-1.29c0-6.29-4.33-11.72-6.95-14.76-.91-1.05-.16-2.68,1.23-2.68h40.6,0s9.57,0,9.57,0c5.44,0,6,.54,6,5.75v90.58c0,1.41,1.15,2.56,2.56,2.56h29.01c1.41,0,2.56-1.15,2.56-2.56v-99.93c0-22.58-9.78-26.86-27.82-26.86Zm-114.7-5.37c1.41,0,2.56-1.15,2.56-2.56v-25.34c0-1.41-1.15-2.56-2.56-2.56H57.76c-18.04,0-27.82,4.28-27.82,26.86v111.46c0,22.58,9.78,26.86,27.82,26.86h83.37c1.41,0,2.56-1.15,2.56-2.56v-25.34c0-1.41-1.15-2.56-2.56-2.56h-71.06c-5.44,0-6-.54-6-5.76v-33.98h55.66c1.41,0,2.56-1.15,2.56-2.56v-25.33c0-1.41-1.15-2.56-2.56-2.56h-55.66v-13.22h0s0-2.39,0-2.39h0v-1.04c0-6.29-4.33-11.72-6.95-14.76-.91-1.05-.16-2.68,1.23-2.68h82.77Z"></path></g><path class="cls-1" d="m538.54,13.2h-6.54c-17.46,0-27.59,4.38-27.59,26.67v6.91c0,1.2.05,2.35.09,3.41,0,.32.15,2.52.15,3.04,0,6.38-5.17,11.55-11.55,11.55-2.52,0-4.85-.81-6.75-2.18-1.14-.82-2.38-1.49-3.73-1.9-3.01-.92-6.6-1.22-10.73-1.22h-5.02c-13.5,0-21.33,3.36-21.33,20.63v5.3c0,17.27,7.83,20.63,21.33,20.63h5.02c13.5,0,21.28-3.32,21.33-20.45v-.18c.09-8.75,7.23-15.84,16.07-15.84,2.21,0,4.35.42,6.54,1.38,4.33,1.89,9.76,2.49,16.17,2.49h6.54c17.46,0,27.54-4.38,27.54-26.67v-6.91c0-22.29-10.09-26.67-27.54-26.67Z"></path></svg> 